<?xml version="1.0" encoding="UTF-8"?><svg xmlns="http://www.w3.org/2000/svg" xmlns:xlink="http://www.w3.org/1999/xlink" fill-opacity="1" color-rendering="auto" color-interpolation="auto" text-rendering="auto" stroke="black" stroke-linecap="square" width="1024" stroke-miterlimit="10" shape-rendering="auto" stroke-opacity="1" fill="black" stroke-dasharray="none" font-weight="normal" stroke-width="1" height="393" font-family="'Dialog'" font-style="normal" stroke-linejoin="miter" font-size="12px" stroke-dashoffset="0" image-rendering="auto">
  <!--Generated by ySVG 2.6-->
  <defs id="genericDefs"/>
  <g>
    <defs id="defs1">
      <clipPath clipPathUnits="userSpaceOnUse" id="clipPath1">
        <path d="M0 0 L1024 0 L1024 393 L0 393 L0 0 Z"/>
      </clipPath>
      <clipPath clipPathUnits="userSpaceOnUse" id="clipPath2">
        <path d="M405 344 L746 344 L746 474.8721 L405 474.8721 L405 344 Z"/>
      </clipPath>
    </defs>
    <g fill="white" text-rendering="geometricPrecision" shape-rendering="geometricPrecision" transform="matrix(3.0029,0,0,3.0029,-1216.1877,-1033.0088)" stroke="white">
      <rect x="407" y="443" clip-path="url(#clipPath2)" width="203" rx="4" ry="4" height="30" stroke="none"/>
    </g>
    <g text-rendering="geometricPrecision" stroke-miterlimit="1.45" shape-rendering="geometricPrecision" transform="matrix(3.0029,0,0,3.0029,-1216.1877,-1033.0088)" stroke-linecap="butt">
      <rect x="407" y="443" clip-path="url(#clipPath2)" fill="none" width="203" rx="4" ry="4" height="30"/>
      <text x="467.8184" xml:space="preserve" y="462.7139" clip-path="url(#clipPath2)" font-family="sans-serif" stroke="none">Target platform</text>
    </g>
    <g fill="white" text-rendering="geometricPrecision" shape-rendering="geometricPrecision" transform="matrix(3.0029,0,0,3.0029,-1216.1877,-1033.0088)" stroke="white">
      <rect x="456.5" y="346" clip-path="url(#clipPath2)" width="104" rx="4" ry="4" height="30" stroke="none"/>
    </g>
    <g text-rendering="geometricPrecision" stroke-miterlimit="1.45" shape-rendering="geometricPrecision" transform="matrix(3.0029,0,0,3.0029,-1216.1877,-1033.0088)" stroke-linecap="butt">
      <rect x="456.5" y="346" clip-path="url(#clipPath2)" fill="none" width="104" rx="4" ry="4" height="30"/>
      <text x="471.4834" xml:space="preserve" y="365.7139" clip-path="url(#clipPath2)" font-family="sans-serif" stroke="none">Your software</text>
    </g>
    <g fill="rgb(255,204,0)" text-rendering="geometricPrecision" shape-rendering="geometricPrecision" transform="matrix(3.0029,0,0,3.0029,-1216.1877,-1033.0088)" stroke="rgb(255,204,0)">
      <rect x="433.5" y="383" clip-path="url(#clipPath2)" width="155" rx="4" ry="4" height="53" stroke="none"/>
    </g>
    <g text-rendering="geometricPrecision" stroke-miterlimit="1.45" shape-rendering="geometricPrecision" transform="matrix(3.0029,0,0,3.0029,-1216.1877,-1033.0088)" stroke-linecap="butt">
      <rect x="433.5" y="383" clip-path="url(#clipPath2)" fill="none" width="155" rx="4" ry="4" height="53"/>
      <text x="469.3076" xml:space="preserve" y="414.2139" clip-path="url(#clipPath2)" font-family="sans-serif" stroke="none">Abstraction gap</text>
      <text x="648.3154" y="387.2139" clip-path="url(#clipPath2)" fill="rgb(51,102,255)" font-family="sans-serif" stroke="none" xml:space="preserve">to be minimised!</text>
      <path fill="none" d="M678.7291 391 L670.8886 396.0218 L649.3447 406.6445 L627.3684 414.3681 L604.9597 419.1927 L596.4697 419.9083" clip-path="url(#clipPath2)" stroke="rgb(51,102,255)"/>
      <path fill="rgb(51,102,255)" d="M588.4979 420.5803 L600.8755 424.5547 L597.4661 419.8243 L600.0355 414.59 Z" clip-path="url(#clipPath2)" stroke="none"/>
    </g>
  </g>
</svg>
