<?xml version="1.0" encoding="UTF-8"?><svg xmlns="http://www.w3.org/2000/svg" xmlns:xlink="http://www.w3.org/1999/xlink" fill-opacity="1" color-rendering="auto" color-interpolation="auto" text-rendering="auto" stroke="black" stroke-linecap="square" width="1024" stroke-miterlimit="10" shape-rendering="auto" stroke-opacity="1" fill="black" stroke-dasharray="none" font-weight="normal" stroke-width="1" height="649" font-family="'Dialog'" font-style="normal" stroke-linejoin="miter" font-size="12px" stroke-dashoffset="0" image-rendering="auto">
  <!--Generated by ySVG 2.6-->
  <defs id="genericDefs"/>
  <g>
    <defs id="defs1">
      <clipPath clipPathUnits="userSpaceOnUse" id="clipPath1">
        <path d="M0 0 L1024 0 L1024 649 L0 649 L0 0 Z"/>
      </clipPath>
      <clipPath clipPathUnits="userSpaceOnUse" id="clipPath2">
        <path d="M444 287 L1034 287 L1034 660.9355 L444 660.9355 L444 287 Z"/>
      </clipPath>
    </defs>
    <g fill="white" text-rendering="geometricPrecision" shape-rendering="geometricPrecision" transform="matrix(1.7356,0,0,1.7356,-770.6034,-498.1153)" stroke="white">
      <rect x="450.0441" y="459.3926" clip-path="url(#clipPath2)" width="108.5847" rx="4" ry="4" height="30" stroke="none"/>
    </g>
    <g text-rendering="geometricPrecision" stroke-miterlimit="1.45" shape-rendering="geometricPrecision" transform="matrix(1.7356,0,0,1.7356,-770.6034,-498.1153)" stroke-linecap="butt">
      <rect x="450.0441" y="459.3926" clip-path="url(#clipPath2)" fill="none" width="108.5847" rx="4" ry="4" height="30"/>
      <text x="474.8523" xml:space="preserve" y="479.0487" clip-path="url(#clipPath2)" font-family="sans-serif" stroke="none">Platform 1</text>
    </g>
    <g fill="white" text-rendering="geometricPrecision" shape-rendering="geometricPrecision" transform="matrix(1.7356,0,0,1.7356,-770.6034,-498.1153)" stroke="white">
      <rect x="585.2707" y="459.3926" clip-path="url(#clipPath2)" width="108.5847" rx="4" ry="4" height="30" stroke="none"/>
    </g>
    <g text-rendering="geometricPrecision" stroke-miterlimit="1.45" shape-rendering="geometricPrecision" transform="matrix(1.7356,0,0,1.7356,-770.6034,-498.1153)" stroke-linecap="butt">
      <rect x="585.2707" y="459.3926" clip-path="url(#clipPath2)" fill="none" width="108.5847" rx="4" ry="4" height="30"/>
      <text x="610.0788" xml:space="preserve" y="479.0487" clip-path="url(#clipPath2)" font-family="sans-serif" stroke="none">Platform 2</text>
    </g>
    <g fill="white" text-rendering="geometricPrecision" shape-rendering="geometricPrecision" transform="matrix(1.7356,0,0,1.7356,-770.6034,-498.1153)" stroke="white">
      <rect x="720.4972" y="459.3926" clip-path="url(#clipPath2)" width="23.6481" rx="4" ry="4" height="30" stroke="none"/>
    </g>
    <g text-rendering="geometricPrecision" stroke-miterlimit="1.45" stroke-dasharray="6,2" shape-rendering="geometricPrecision" transform="matrix(1.7356,0,0,1.7356,-770.6034,-498.1153)" stroke-linecap="butt">
      <rect x="720.4972" y="459.3926" clip-path="url(#clipPath2)" fill="none" width="23.6481" rx="4" ry="4" height="30"/>
      <text x="727.4972" y="479.0487" clip-path="url(#clipPath2)" font-family="sans-serif" stroke-dasharray="none" stroke="none" xml:space="preserve">...</text>
    </g>
    <g fill="rgb(153,204,0)" text-rendering="geometricPrecision" shape-rendering="geometricPrecision" transform="matrix(1.7356,0,0,1.7356,-770.6034,-498.1153)" stroke="rgb(153,204,0)">
      <rect x="450.0441" y="289.8182" clip-path="url(#clipPath2)" width="294.1011" rx="4" ry="4" height="30" stroke="none"/>
    </g>
    <g text-rendering="geometricPrecision" stroke-miterlimit="1.45" shape-rendering="geometricPrecision" transform="matrix(1.7356,0,0,1.7356,-770.6034,-498.1153)" stroke-linecap="butt">
      <rect x="450.0441" y="289.8182" clip-path="url(#clipPath2)" fill="none" width="294.1011" rx="4" ry="4" height="30"/>
      <text x="541.0543" xml:space="preserve" y="309.4743" clip-path="url(#clipPath2)" font-family="sans-serif" stroke="none">Multi-platform code</text>
    </g>
    <g fill="rgb(255,204,0)" text-rendering="geometricPrecision" shape-rendering="geometricPrecision" transform="matrix(1.7356,0,0,1.7356,-770.6034,-498.1153)" stroke="rgb(255,204,0)">
      <rect x="450.0441" y="415.975" clip-path="url(#clipPath2)" width="108.5847" rx="4" ry="4" height="37.7824" stroke="none"/>
    </g>
    <g text-rendering="geometricPrecision" stroke-miterlimit="1.45" shape-rendering="geometricPrecision" transform="matrix(1.7356,0,0,1.7356,-770.6034,-498.1153)" stroke-linecap="butt">
      <rect x="450.0441" y="415.975" clip-path="url(#clipPath2)" fill="none" width="108.5847" rx="4" ry="4" height="37.7824"/>
      <text x="457.0441" xml:space="preserve" y="431.3502" clip-path="url(#clipPath2)" font-family="sans-serif" stroke="none">Platform-specific</text>
      <text x="485.7603" xml:space="preserve" y="447.6943" clip-path="url(#clipPath2)" font-family="sans-serif" stroke="none">code 1</text>
    </g>
    <g fill="rgb(255,204,0)" text-rendering="geometricPrecision" shape-rendering="geometricPrecision" transform="matrix(1.7356,0,0,1.7356,-770.6034,-498.1153)" stroke="rgb(255,204,0)">
      <rect x="585.2707" y="372.5574" clip-path="url(#clipPath2)" width="108.5847" rx="4" ry="4" height="81.2" stroke="none"/>
    </g>
    <g text-rendering="geometricPrecision" stroke-miterlimit="1.45" shape-rendering="geometricPrecision" transform="matrix(1.7356,0,0,1.7356,-770.6034,-498.1153)" stroke-linecap="butt">
      <rect x="585.2707" y="372.5574" clip-path="url(#clipPath2)" fill="none" width="108.5847" rx="4" ry="4" height="81.2"/>
      <text x="592.2706" xml:space="preserve" y="409.6414" clip-path="url(#clipPath2)" font-family="sans-serif" stroke="none">Platform-specific</text>
      <text x="620.9869" xml:space="preserve" y="425.9855" clip-path="url(#clipPath2)" font-family="sans-serif" stroke="none">code 2</text>
    </g>
    <g fill="rgb(153,204,255)" text-rendering="geometricPrecision" shape-rendering="geometricPrecision" transform="matrix(1.7356,0,0,1.7356,-770.6034,-498.1153)" stroke="rgb(153,204,255)">
      <rect x="450.0441" y="325.4534" clip-path="url(#clipPath2)" width="108.5847" rx="4" ry="4" height="84.8864" stroke="none"/>
    </g>
    <g text-rendering="geometricPrecision" stroke-miterlimit="1.45" shape-rendering="geometricPrecision" transform="matrix(1.7356,0,0,1.7356,-770.6034,-498.1153)" stroke-linecap="butt">
      <rect x="450.0441" y="325.4534" clip-path="url(#clipPath2)" fill="none" width="108.5847" rx="4" ry="4" height="84.8864"/>
      <text x="472.8843" xml:space="preserve" y="364.3806" clip-path="url(#clipPath2)" font-family="sans-serif" stroke="none">Third-party</text>
      <text x="485.7603" xml:space="preserve" y="380.7247" clip-path="url(#clipPath2)" font-family="sans-serif" stroke="none">code 1</text>
    </g>
    <g fill="rgb(153,204,255)" text-rendering="geometricPrecision" shape-rendering="geometricPrecision" transform="matrix(1.7356,0,0,1.7356,-770.6034,-498.1153)" stroke="rgb(153,204,255)">
      <rect x="585.2707" y="325.4534" clip-path="url(#clipPath2)" width="108.5847" rx="4" ry="4" height="41.4688" stroke="none"/>
    </g>
    <g text-rendering="geometricPrecision" stroke-miterlimit="1.45" shape-rendering="geometricPrecision" transform="matrix(1.7356,0,0,1.7356,-770.6034,-498.1153)" stroke-linecap="butt">
      <rect x="585.2707" y="325.4534" clip-path="url(#clipPath2)" fill="none" width="108.5847" rx="4" ry="4" height="41.4688"/>
      <text x="608.1108" xml:space="preserve" y="342.6718" clip-path="url(#clipPath2)" font-family="sans-serif" stroke="none">Third-party</text>
      <text x="620.9869" xml:space="preserve" y="359.0159" clip-path="url(#clipPath2)" font-family="sans-serif" stroke="none">code 2</text>
    </g>
    <g fill="rgb(255,204,0)" text-rendering="geometricPrecision" shape-rendering="geometricPrecision" transform="matrix(1.7356,0,0,1.7356,-770.6034,-498.1153)" stroke="rgb(255,204,0)">
      <rect x="720.4972" y="403.687" clip-path="url(#clipPath2)" width="23.6481" rx="4" ry="4" height="50.0704" stroke="none"/>
    </g>
    <g text-rendering="geometricPrecision" stroke-miterlimit="1.45" stroke-dasharray="6,2" shape-rendering="geometricPrecision" transform="matrix(1.7356,0,0,1.7356,-770.6034,-498.1153)" stroke-linecap="butt">
      <rect x="720.4972" y="403.687" clip-path="url(#clipPath2)" fill="none" width="23.6481" rx="4" ry="4" height="50.0704"/>
      <text x="727.4972" y="433.3783" clip-path="url(#clipPath2)" font-family="sans-serif" stroke-dasharray="none" stroke="none" xml:space="preserve">...</text>
    </g>
    <g fill="rgb(153,204,255)" text-rendering="geometricPrecision" shape-rendering="geometricPrecision" transform="matrix(1.7356,0,0,1.7356,-770.6034,-498.1153)" stroke="rgb(153,204,255)">
      <rect x="720.4972" y="325.4534" clip-path="url(#clipPath2)" width="23.6481" rx="4" ry="4" height="72.5984" stroke="none"/>
    </g>
    <g text-rendering="geometricPrecision" stroke-miterlimit="1.45" stroke-dasharray="6,2" shape-rendering="geometricPrecision" transform="matrix(1.7356,0,0,1.7356,-770.6034,-498.1153)" stroke-linecap="butt">
      <rect x="720.4972" y="325.4534" clip-path="url(#clipPath2)" fill="none" width="23.6481" rx="4" ry="4" height="72.5984"/>
      <text x="727.4972" y="366.4087" clip-path="url(#clipPath2)" font-family="sans-serif" stroke-dasharray="none" stroke="none" xml:space="preserve">...</text>
    </g>
    <g fill="rgb(245,245,245)" text-rendering="geometricPrecision" shape-rendering="geometricPrecision" transform="matrix(1.7356,0,0,1.7356,-770.6034,-498.1153)" stroke="rgb(245,245,245)">
      <rect x="446.4882" y="511.671" clip-path="url(#clipPath2)" width="311.9021" rx="4" ry="4" height="146.9583" stroke="none"/>
      <rect x="446.4882" y="511.671" clip-path="url(#clipPath2)" fill="rgb(235,235,235)" width="311.9021" height="24.4301" stroke="none"/>
    </g>
    <g font-size="15px" stroke-linecap="butt" transform="matrix(1.7356,0,0,1.7356,-770.6034,-498.1153)" text-rendering="geometricPrecision" font-family="sans-serif" shape-rendering="geometricPrecision" stroke-miterlimit="1.45">
      <text x="575.3491" xml:space="preserve" y="529.7062" clip-path="url(#clipPath2)" stroke="none">Release</text>
      <rect x="446.4882" y="511.671" clip-path="url(#clipPath2)" fill="none" width="311.9021" stroke-dasharray="6,2" rx="4" ry="4" height="146.9583"/>
    </g>
    <g fill="silver" text-rendering="geometricPrecision" shape-rendering="geometricPrecision" transform="matrix(1.7356,0,0,1.7356,-770.6034,-498.1153)" stroke="silver">
      <path d="M721.9413 556.8262 L724.3061 541.8262 L743.2245 541.8262 L745.5894 556.8262 L743.2245 571.8262 L724.3061 571.8262 Z" fill-rule="evenodd" clip-path="url(#clipPath2)" stroke="none"/>
    </g>
    <g text-rendering="geometricPrecision" stroke-miterlimit="1.45" stroke-dasharray="6,2" shape-rendering="geometricPrecision" transform="matrix(1.7356,0,0,1.7356,-770.6034,-498.1153)" stroke-linecap="butt">
      <path fill="none" d="M721.9413 556.8262 L724.3061 541.8262 L743.2245 541.8262 L745.5894 556.8262 L743.2245 571.8262 L724.3061 571.8262 Z" fill-rule="evenodd" clip-path="url(#clipPath2)"/>
      <text x="728.9413" y="561.4822" clip-path="url(#clipPath2)" font-family="sans-serif" stroke-dasharray="none" stroke="none" xml:space="preserve">...</text>
    </g>
    <g fill="rgb(204,153,255)" text-rendering="geometricPrecision" shape-rendering="geometricPrecision" transform="matrix(1.7356,0,0,1.7356,-770.6034,-498.1153)" stroke="rgb(204,153,255)">
      <path d="M598.8229 615.539 C601.3539 606.0164 680.6603 606.0164 683.1913 615.539 L683.1913 644.1068 C680.6603 653.6294 601.3539 653.6294 598.8229 644.1068 Z" stroke="none" clip-path="url(#clipPath2)"/>
    </g>
    <g text-rendering="geometricPrecision" stroke-miterlimit="1.45" shape-rendering="geometricPrecision" transform="matrix(1.7356,0,0,1.7356,-770.6034,-498.1153)" stroke-linecap="butt">
      <path fill="none" d="M598.8229 615.539 C601.3539 606.0164 680.6603 606.0164 683.1913 615.539 L683.1913 644.1068 C680.6603 653.6294 601.3539 653.6294 598.8229 644.1068 Z" clip-path="url(#clipPath2)"/>
      <path fill="none" d="M683.1913 615.539 C680.6603 625.0616 601.3539 625.0616 598.8229 615.539" clip-path="url(#clipPath2)"/>
      <text x="605.8229" xml:space="preserve" y="634.4789" clip-path="url(#clipPath2)" font-family="sans-serif" stroke="none">Repository 2</text>
    </g>
    <g fill="silver" text-rendering="geometricPrecision" shape-rendering="geometricPrecision" transform="matrix(1.7356,0,0,1.7356,-770.6034,-498.1153)" stroke="silver">
      <path d="M586.7148 541.1012 L684.441 541.1012 L695.2994 571.1012 L597.5732 571.1012 Z" fill-rule="evenodd" clip-path="url(#clipPath2)" stroke="none"/>
    </g>
    <g text-rendering="geometricPrecision" stroke-miterlimit="1.45" shape-rendering="geometricPrecision" transform="matrix(1.7356,0,0,1.7356,-770.6034,-498.1153)" stroke-linecap="butt">
      <path fill="none" d="M586.7148 541.1012 L684.441 541.1012 L695.2994 571.1012 L597.5732 571.1012 Z" fill-rule="evenodd" clip-path="url(#clipPath2)"/>
      <text x="612.4949" xml:space="preserve" y="560.7572" clip-path="url(#clipPath2)" font-family="sans-serif" stroke="none">Package 2</text>
    </g>
    <g fill="rgb(204,153,255)" text-rendering="geometricPrecision" shape-rendering="geometricPrecision" transform="matrix(1.7356,0,0,1.7356,-770.6034,-498.1153)" stroke="rgb(204,153,255)">
      <path d="M462.1522 615.539 C464.6833 606.0164 543.9897 606.0164 546.5208 615.539 L546.5208 644.1068 C543.9897 653.6294 464.6833 653.6294 462.1522 644.1068 Z" stroke="none" clip-path="url(#clipPath2)"/>
    </g>
    <g text-rendering="geometricPrecision" stroke-miterlimit="1.45" shape-rendering="geometricPrecision" transform="matrix(1.7356,0,0,1.7356,-770.6034,-498.1153)" stroke-linecap="butt">
      <path fill="none" d="M462.1522 615.539 C464.6833 606.0164 543.9897 606.0164 546.5208 615.539 L546.5208 644.1068 C543.9897 653.6294 464.6833 653.6294 462.1522 644.1068 Z" clip-path="url(#clipPath2)"/>
      <path fill="none" d="M546.5208 615.539 C543.9897 625.0616 464.6833 625.0616 462.1522 615.539" clip-path="url(#clipPath2)"/>
      <text x="469.1522" xml:space="preserve" y="634.4789" clip-path="url(#clipPath2)" font-family="sans-serif" stroke="none">Repository 1</text>
    </g>
    <g fill="silver" text-rendering="geometricPrecision" shape-rendering="geometricPrecision" transform="matrix(1.7356,0,0,1.7356,-770.6034,-498.1153)" stroke="silver">
      <path d="M462.3467 541.1012 L560.0729 541.1012 L549.2145 571.1012 L451.4882 571.1012 Z" fill-rule="evenodd" clip-path="url(#clipPath2)" stroke="none"/>
    </g>
    <g text-rendering="geometricPrecision" stroke-miterlimit="1.45" shape-rendering="geometricPrecision" transform="matrix(1.7356,0,0,1.7356,-770.6034,-498.1153)" stroke-linecap="butt">
      <path fill="none" d="M462.3467 541.1012 L560.0729 541.1012 L549.2145 571.1012 L451.4882 571.1012 Z" fill-rule="evenodd" clip-path="url(#clipPath2)"/>
      <text x="477.2684" xml:space="preserve" y="560.7572" clip-path="url(#clipPath2)" font-family="sans-serif" stroke="none">Package 1</text>
    </g>
    <g fill="rgb(204,153,255)" text-rendering="geometricPrecision" shape-rendering="geometricPrecision" transform="matrix(1.7356,0,0,1.7356,-770.6034,-498.1153)" stroke="rgb(204,153,255)">
      <path d="M714.1403 615.539 C715.3178 606.0164 752.2128 606.0164 753.3903 615.539 L753.3903 644.1068 C752.2128 653.6294 715.3178 653.6294 714.1403 644.1068 Z" stroke="none" clip-path="url(#clipPath2)"/>
    </g>
    <g text-rendering="geometricPrecision" stroke-miterlimit="1.45" stroke-dasharray="6,2" shape-rendering="geometricPrecision" transform="matrix(1.7356,0,0,1.7356,-770.6034,-498.1153)" stroke-linecap="butt">
      <path fill="none" d="M714.1403 615.539 C715.3178 606.0164 752.2128 606.0164 753.3903 615.539 L753.3903 644.1068 C752.2128 653.6294 715.3178 653.6294 714.1403 644.1068 Z" clip-path="url(#clipPath2)"/>
      <path fill="none" d="M753.3903 615.539 C752.2128 625.0616 715.3178 625.0616 714.1403 615.539" clip-path="url(#clipPath2)"/>
      <text x="728.9413" y="634.4789" clip-path="url(#clipPath2)" font-family="sans-serif" stroke-dasharray="none" stroke="none" xml:space="preserve">...</text>
    </g>
    <g stroke-linecap="butt" transform="matrix(1.7356,0,0,1.7356,-770.6034,-498.1153)" fill="rgb(51,102,255)" text-rendering="geometricPrecision" shape-rendering="geometricPrecision" stroke-dasharray="6,2" stroke="rgb(51,102,255)" stroke-miterlimit="1.45">
      <rect fill="none" x="842.3742" width="30" height="30" y="541.8262" clip-path="url(#clipPath2)"/>
      <rect fill="none" x="1001.5976" width="30" height="30" y="541.8262" clip-path="url(#clipPath2)"/>
      <rect fill="none" x="842.3742" width="30" height="30" y="590.7836" clip-path="url(#clipPath2)"/>
      <rect fill="none" x="1001.5976" width="30" height="30" y="590.7836" clip-path="url(#clipPath2)"/>
      <path fill="none" d="M732.5842 489.4062 L733.3102 530.8493" clip-path="url(#clipPath2)"/>
      <path d="M733.5029 541.8476 L739.2918 529.7443 L727.2936 529.9545 Z" clip-path="url(#clipPath2)" stroke="none"/>
      <path fill="none" stroke-dasharray="none" d="M639.8274 489.3539 L640.5472 530.0782" clip-path="url(#clipPath2)"/>
      <path stroke-dasharray="none" d="M640.7416 541.0765 L646.5286 528.9724 L634.5305 529.1844 Z" clip-path="url(#clipPath2)" stroke="none"/>
      <path fill="none" stroke-dasharray="none" d="M641.0071 571.1119 L641.0071 604.4083" clip-path="url(#clipPath2)"/>
      <path stroke-dasharray="none" d="M641.0071 608.4083 L647.0071 600.4083 L641.0071 603.4083 L635.0071 600.4083 Z" clip-path="url(#clipPath2)" stroke="none"/>
      <path fill="none" stroke-dasharray="none" d="M504.6009 489.3539 L505.3207 530.0782" clip-path="url(#clipPath2)"/>
      <path stroke-dasharray="none" d="M505.515 541.0765 L511.3021 528.9724 L499.304 529.1844 Z" clip-path="url(#clipPath2)" stroke="none"/>
      <path fill="none" stroke-dasharray="none" d="M505.4865 571.1119 L504.8343 604.4091" clip-path="url(#clipPath2)"/>
      <path stroke-dasharray="none" d="M504.756 608.4083 L510.9115 600.5273 L504.8539 603.4092 L498.9138 600.2923 Z" clip-path="url(#clipPath2)" stroke="none"/>
      <path fill="none" d="M733.7653 571.8318 L733.7653 604.3877" clip-path="url(#clipPath2)"/>
      <path d="M733.7653 608.3877 L739.7653 600.3877 L733.7653 603.3877 L727.7653 600.3877 Z" clip-path="url(#clipPath2)" stroke="none"/>
      <path fill="none" stroke-dasharray="none" d="M872.3403 556.8262 L990.6295 556.8262" clip-path="url(#clipPath2)"/>
      <path stroke-dasharray="none" d="M1001.6295 556.8262 L989.6295 550.8262 L989.6295 562.8262 Z" clip-path="url(#clipPath2)" stroke="none"/>
      <text x="922.3754" y="570.2485" clip-path="url(#clipPath2)" font-family="sans-serif" stroke-dasharray="none" stroke="none" xml:space="preserve">build</text>
      <path fill="none" stroke-dasharray="none" d="M872.3403 605.7836 L997.6295 605.7836" clip-path="url(#clipPath2)"/>
      <path stroke-dasharray="none" d="M1001.6295 605.7836 L993.6295 599.7836 L996.6295 605.7836 L993.6295 611.7836 Z" clip-path="url(#clipPath2)" stroke="none"/>
      <text x="916.9274" y="619.206" clip-path="url(#clipPath2)" font-family="sans-serif" stroke-dasharray="none" stroke="none" xml:space="preserve">upload</text>
    </g>
  </g>
</svg>
