<?xml version="1.0" encoding="UTF-8"?><svg xmlns="http://www.w3.org/2000/svg" xmlns:xlink="http://www.w3.org/1999/xlink" fill-opacity="1" color-rendering="auto" color-interpolation="auto" text-rendering="auto" stroke="black" stroke-linecap="square" width="1024" stroke-miterlimit="10" shape-rendering="auto" stroke-opacity="1" fill="black" stroke-dasharray="none" font-weight="normal" stroke-width="1" height="835" font-family="'Dialog'" font-style="normal" stroke-linejoin="miter" font-size="12px" stroke-dashoffset="0" image-rendering="auto">
  <!--Generated by ySVG 2.6-->
  <defs id="genericDefs"/>
  <g>
    <defs id="defs1">
      <clipPath clipPathUnits="userSpaceOnUse" id="clipPath1">
        <path d="M0 0 L1024 0 L1024 835 L0 835 L0 0 Z"/>
      </clipPath>
      <clipPath clipPathUnits="userSpaceOnUse" id="clipPath2">
        <path d="M473 277 L772 277 L772 520.8135 L473 520.8135 L473 277 Z"/>
      </clipPath>
    </defs>
    <g fill="white" text-rendering="geometricPrecision" shape-rendering="geometricPrecision" transform="matrix(3.4247,0,0,3.4247,-1619.9064,-948.6555)" stroke="white">
      <rect x="475.0883" y="420.4941" clip-path="url(#clipPath2)" width="108.5847" rx="4" ry="4" height="94.7168" stroke="none"/>
    </g>
    <g text-rendering="geometricPrecision" stroke-miterlimit="1.45" shape-rendering="geometricPrecision" transform="matrix(3.4247,0,0,3.4247,-1619.9064,-948.6555)" stroke-linecap="butt">
      <rect x="475.0883" y="420.4941" clip-path="url(#clipPath2)" fill="none" width="108.5847" rx="4" ry="4" height="94.7168"/>
      <text x="499.8964" xml:space="preserve" y="464.3365" clip-path="url(#clipPath2)" font-family="sans-serif" stroke="none">Platform 1</text>
      <text x="511.5125" xml:space="preserve" y="480.6806" clip-path="url(#clipPath2)" font-family="sans-serif" stroke="none">Std-lib</text>
    </g>
    <g fill="white" text-rendering="geometricPrecision" shape-rendering="geometricPrecision" transform="matrix(3.4247,0,0,3.4247,-1619.9064,-948.6555)" stroke="white">
      <rect x="610.3148" y="485.2109" clip-path="url(#clipPath2)" width="108.5847" rx="4" ry="4" height="30" stroke="none"/>
    </g>
    <g text-rendering="geometricPrecision" stroke-miterlimit="1.45" shape-rendering="geometricPrecision" transform="matrix(3.4247,0,0,3.4247,-1619.9064,-948.6555)" stroke-linecap="butt">
      <rect x="610.3148" y="485.2109" clip-path="url(#clipPath2)" fill="none" width="108.5847" rx="4" ry="4" height="30"/>
      <text x="635.1229" xml:space="preserve" y="496.6949" clip-path="url(#clipPath2)" font-family="sans-serif" stroke="none">Platform 2</text>
      <text x="646.739" xml:space="preserve" y="513.0389" clip-path="url(#clipPath2)" font-family="sans-serif" stroke="none">Std-lib</text>
    </g>
    <g fill="white" text-rendering="geometricPrecision" shape-rendering="geometricPrecision" transform="matrix(3.4247,0,0,3.4247,-1619.9064,-948.6555)" stroke="white">
      <rect x="745.5413" y="407.7965" clip-path="url(#clipPath2)" width="23.6481" rx="4" ry="4" height="107.4144" stroke="none"/>
    </g>
    <g text-rendering="geometricPrecision" stroke-miterlimit="1.45" stroke-dasharray="6,2" shape-rendering="geometricPrecision" transform="matrix(3.4247,0,0,3.4247,-1619.9064,-948.6555)" stroke-linecap="butt">
      <rect x="745.5413" y="407.7965" clip-path="url(#clipPath2)" fill="none" width="23.6481" rx="4" ry="4" height="107.4144"/>
      <text x="752.5413" y="466.1597" clip-path="url(#clipPath2)" font-family="sans-serif" stroke-dasharray="none" stroke="none" xml:space="preserve">...</text>
    </g>
    <g fill="rgb(153,204,0)" text-rendering="geometricPrecision" shape-rendering="geometricPrecision" transform="matrix(3.4247,0,0,3.4247,-1619.9064,-948.6555)" stroke="rgb(153,204,0)">
      <rect x="475.0883" y="315.6365" clip-path="url(#clipPath2)" width="294.1011" rx="4" ry="4" height="30" stroke="none"/>
    </g>
    <g text-rendering="geometricPrecision" stroke-miterlimit="1.45" shape-rendering="geometricPrecision" transform="matrix(3.4247,0,0,3.4247,-1619.9064,-948.6555)" stroke-linecap="butt">
      <rect x="475.0883" y="315.6365" clip-path="url(#clipPath2)" fill="none" width="294.1011" rx="4" ry="4" height="30"/>
      <text x="576.7305" xml:space="preserve" y="335.2925" clip-path="url(#clipPath2)" font-family="sans-serif" stroke="none">Common Std-lib</text>
    </g>
    <g fill="rgb(255,204,0)" text-rendering="geometricPrecision" shape-rendering="geometricPrecision" transform="matrix(3.4247,0,0,3.4247,-1619.9064,-948.6555)" stroke="rgb(255,204,0)">
      <rect x="475.0883" y="352.0909" clip-path="url(#clipPath2)" width="108.5847" rx="4" ry="4" height="61.9488" stroke="none"/>
    </g>
    <g text-rendering="geometricPrecision" stroke-miterlimit="1.45" shape-rendering="geometricPrecision" transform="matrix(3.4247,0,0,3.4247,-1619.9064,-948.6555)" stroke-linecap="butt">
      <rect x="475.0883" y="352.0909" clip-path="url(#clipPath2)" fill="none" width="108.5847" rx="4" ry="4" height="61.9488"/>
      <text x="495.4804" xml:space="preserve" y="379.5493" clip-path="url(#clipPath2)" font-family="sans-serif" stroke="none">Abstraction </text>
      <text x="513.6425" xml:space="preserve" y="395.8934" clip-path="url(#clipPath2)" font-family="sans-serif" stroke="none">gap 1</text>
    </g>
    <g fill="rgb(255,204,0)" text-rendering="geometricPrecision" shape-rendering="geometricPrecision" transform="matrix(3.4247,0,0,3.4247,-1619.9064,-948.6555)" stroke="rgb(255,204,0)">
      <rect x="610.3148" y="352.0909" clip-path="url(#clipPath2)" width="108.5847" rx="4" ry="4" height="127.4848" stroke="none"/>
    </g>
    <g stroke-linecap="butt" transform="matrix(3.4247,0,0,3.4247,-1619.9064,-948.6555)" fill="red" text-rendering="geometricPrecision" shape-rendering="geometricPrecision" stroke="red" stroke-width="2" stroke-miterlimit="1.45">
      <rect x="610.3148" y="352.0909" clip-path="url(#clipPath2)" fill="none" width="108.5847" rx="4" ry="4" height="127.4848"/>
    </g>
    <g text-rendering="geometricPrecision" stroke-miterlimit="1.45" shape-rendering="geometricPrecision" font-family="sans-serif" transform="matrix(3.4247,0,0,3.4247,-1619.9064,-948.6555)" stroke-linecap="butt">
      <text x="630.7069" xml:space="preserve" y="412.3173" clip-path="url(#clipPath2)" stroke="none">Abstraction </text>
      <text x="648.869" xml:space="preserve" y="428.6614" clip-path="url(#clipPath2)" stroke="none">gap 2</text>
    </g>
    <g fill="rgb(255,204,0)" text-rendering="geometricPrecision" shape-rendering="geometricPrecision" transform="matrix(3.4247,0,0,3.4247,-1619.9064,-948.6555)" stroke="rgb(255,204,0)">
      <rect x="745.5413" y="352.0909" clip-path="url(#clipPath2)" width="23.6481" rx="4" ry="4" height="50.0704" stroke="none"/>
    </g>
    <g text-rendering="geometricPrecision" stroke-miterlimit="1.45" stroke-dasharray="6,2" shape-rendering="geometricPrecision" transform="matrix(3.4247,0,0,3.4247,-1619.9064,-948.6555)" stroke-linecap="butt">
      <rect x="745.5413" y="352.0909" clip-path="url(#clipPath2)" fill="none" width="23.6481" rx="4" ry="4" height="50.0704"/>
      <text x="752.5413" y="381.7821" clip-path="url(#clipPath2)" font-family="sans-serif" stroke-dasharray="none" stroke="none" xml:space="preserve">...</text>
    </g>
    <g fill="white" text-rendering="geometricPrecision" shape-rendering="geometricPrecision" transform="matrix(3.4247,0,0,3.4247,-1619.9064,-948.6555)" stroke="white">
      <rect x="567.8465" y="279.1821" clip-path="url(#clipPath2)" width="108.5847" rx="4" ry="4" height="30" stroke="none"/>
    </g>
    <g text-rendering="geometricPrecision" stroke-miterlimit="1.45" shape-rendering="geometricPrecision" transform="matrix(3.4247,0,0,3.4247,-1619.9064,-948.6555)" stroke-linecap="butt">
      <rect x="567.8465" y="279.1821" clip-path="url(#clipPath2)" fill="none" width="108.5847" rx="4" ry="4" height="30"/>
      <text x="593.7826" xml:space="preserve" y="298.8381" clip-path="url(#clipPath2)" font-family="sans-serif" stroke="none">Your code</text>
    </g>
  </g>
</svg>
