<?xml version="1.0" encoding="UTF-8"?><svg xmlns="http://www.w3.org/2000/svg" xmlns:xlink="http://www.w3.org/1999/xlink" fill-opacity="1" color-rendering="auto" color-interpolation="auto" text-rendering="auto" stroke="black" stroke-linecap="square" width="1024" stroke-miterlimit="10" shape-rendering="auto" stroke-opacity="1" fill="black" stroke-dasharray="none" font-weight="normal" stroke-width="1" height="391" font-family="'Dialog'" font-style="normal" stroke-linejoin="miter" font-size="12px" stroke-dashoffset="0" image-rendering="auto">
  <!--Generated by ySVG 2.6-->
  <defs id="genericDefs"/>
  <g>
    <defs id="defs1">
      <clipPath clipPathUnits="userSpaceOnUse" id="clipPath1">
        <path d="M0 0 L1024 0 L1024 391 L0 391 L0 0 Z"/>
      </clipPath>
      <clipPath clipPathUnits="userSpaceOnUse" id="clipPath2">
        <path d="M332 332 L771 332 L771 499.626 L332 499.626 L332 332 Z"/>
      </clipPath>
    </defs>
    <g fill="white" text-rendering="geometricPrecision" shape-rendering="geometricPrecision" transform="matrix(2.3326,0,0,2.3326,-774.4146,-774.4146)" stroke="white">
      <rect x="432" y="468" clip-path="url(#clipPath2)" width="203" rx="4" ry="4" height="30" stroke="none"/>
    </g>
    <g text-rendering="geometricPrecision" stroke-miterlimit="1.45" shape-rendering="geometricPrecision" transform="matrix(2.3326,0,0,2.3326,-774.4146,-774.4146)" stroke-linecap="butt">
      <rect x="432" y="468" clip-path="url(#clipPath2)" fill="none" width="203" rx="4" ry="4" height="30"/>
      <text x="492.8184" xml:space="preserve" y="487.7139" clip-path="url(#clipPath2)" font-family="sans-serif" stroke="none">Target platform</text>
    </g>
    <g fill="rgb(255,204,0)" text-rendering="geometricPrecision" shape-rendering="geometricPrecision" transform="matrix(2.3326,0,0,2.3326,-774.4146,-774.4146)" stroke="rgb(255,204,0)">
      <rect x="456" y="371" clip-path="url(#clipPath2)" width="155" rx="4" ry="4" height="30" stroke="none"/>
    </g>
    <g text-rendering="geometricPrecision" stroke-miterlimit="1.45" shape-rendering="geometricPrecision" transform="matrix(2.3326,0,0,2.3326,-774.4146,-774.4146)" stroke-linecap="butt">
      <rect x="456" y="371" clip-path="url(#clipPath2)" fill="none" width="155" rx="4" ry="4" height="30"/>
      <text x="474.458" xml:space="preserve" y="390.7139" clip-path="url(#clipPath2)" font-family="sans-serif" stroke="none">The code you develop</text>
    </g>
    <g fill="rgb(153,204,0)" text-rendering="geometricPrecision" shape-rendering="geometricPrecision" transform="matrix(2.3326,0,0,2.3326,-774.4146,-774.4146)" stroke="rgb(153,204,0)">
      <rect x="456" y="408" clip-path="url(#clipPath2)" width="155" rx="4" ry="4" height="53" stroke="none"/>
    </g>
    <g text-rendering="geometricPrecision" stroke-miterlimit="1.45" shape-rendering="geometricPrecision" transform="matrix(2.3326,0,0,2.3326,-774.4146,-774.4146)" stroke-linecap="butt">
      <rect x="456" y="408" clip-path="url(#clipPath2)" fill="none" width="155" rx="4" ry="4" height="53"/>
      <text x="481.8203" xml:space="preserve" y="439.2139" clip-path="url(#clipPath2)" font-family="sans-serif" stroke="none">Third-party libraries</text>
      <text x="671.6484" y="412.2139" clip-path="url(#clipPath2)" fill="rgb(51,102,255)" font-family="sans-serif" stroke="none" xml:space="preserve">to be maximised!</text>
    </g>
    <g fill="white" text-rendering="geometricPrecision" shape-rendering="geometricPrecision" transform="matrix(2.3326,0,0,2.3326,-774.4146,-774.4146)" stroke="white">
      <rect x="486.1056" y="334" clip-path="url(#clipPath2)" width="94.7888" rx="4" ry="4" height="30" stroke="none"/>
    </g>
    <g text-rendering="geometricPrecision" stroke-miterlimit="1.45" shape-rendering="geometricPrecision" transform="matrix(2.3326,0,0,2.3326,-774.4146,-774.4146)" stroke-linecap="butt">
      <rect x="486.1056" y="334" clip-path="url(#clipPath2)" fill="none" width="94.7888" rx="4" ry="4" height="30"/>
      <text x="498.4785" xml:space="preserve" y="353.7139" clip-path="url(#clipPath2)" font-family="sans-serif" stroke="none">Your solution</text>
      <text x="343.1154" y="421.2139" clip-path="url(#clipPath2)" fill="rgb(51,102,255)" font-family="sans-serif" stroke="none" xml:space="preserve">to be minimised!</text>
      <path fill="none" d="M703.6708 416 L695.5761 421.1619 L673.7197 431.8848 L651.4309 439.6684 L628.7097 444.513 L619.0008 445.312" clip-path="url(#clipPath2)" stroke="rgb(51,102,255)"/>
      <path fill="rgb(51,102,255)" d="M611.0278 445.9681 L623.3974 449.9671 L619.9974 445.2299 L622.5773 440.0008 Z" clip-path="url(#clipPath2)" stroke="none"/>
      <path fill="none" d="M399.8622 407.981 L403.6459 405.5133 L420.918 396.5764 L438.6163 389.6892 L448.2679 387.1132" clip-path="url(#clipPath2)" stroke="rgb(51,102,255)"/>
      <path fill="rgb(51,102,255)" d="M455.9973 385.0502 L443.1138 383.3138 L447.3017 387.3711 L445.6925 392.9756 Z" clip-path="url(#clipPath2)" stroke="none"/>
    </g>
  </g>
</svg>
