<?xml version="1.0" encoding="UTF-8"?><svg xmlns="http://www.w3.org/2000/svg" xmlns:xlink="http://www.w3.org/1999/xlink" fill-opacity="1" color-rendering="auto" color-interpolation="auto" text-rendering="auto" stroke="black" stroke-linecap="square" width="1024" stroke-miterlimit="10" shape-rendering="auto" stroke-opacity="1" fill="black" stroke-dasharray="none" font-weight="normal" stroke-width="1" height="791" font-family="'Dialog'" font-style="normal" stroke-linejoin="miter" font-size="12px" stroke-dashoffset="0" image-rendering="auto">
  <!--Generated by ySVG 2.6-->
  <defs id="genericDefs"/>
  <g>
    <defs id="defs1">
      <linearGradient x1="596.7206" gradientUnits="userSpaceOnUse" x2="761.5206" y1="232.5261" y2="307.3261" id="linearGradient1" spreadMethod="reflect">
        <stop stop-opacity="1" stop-color="rgb(232,238,247)" offset="0%"/>
        <stop stop-opacity="1" stop-color="rgb(183,201,227)" offset="100%"/>
      </linearGradient>
      <clipPath clipPathUnits="userSpaceOnUse" id="clipPath1">
        <path d="M0 0 L1024 0 L1024 791 L0 791 L0 0 Z"/>
      </clipPath>
      <clipPath clipPathUnits="userSpaceOnUse" id="clipPath2">
        <path d="M491 230 L1112 230 L1112 709.6982 L491 709.6982 L491 230 Z"/>
      </clipPath>
    </defs>
    <g fill="rgb(153,204,0)" text-rendering="geometricPrecision" shape-rendering="geometricPrecision" transform="matrix(1.649,0,0,1.649,-809.6361,-379.2593)" stroke="rgb(153,204,0)">
      <rect x="510.15" y="358.9261" clip-path="url(#clipPath2)" width="96.3411" rx="4" ry="4" height="26.8" stroke="none"/>
    </g>
    <g text-rendering="geometricPrecision" stroke-miterlimit="1.45" stroke-width="2" shape-rendering="geometricPrecision" transform="matrix(1.649,0,0,1.649,-809.6361,-379.2593)" stroke-linecap="butt">
      <rect x="510.15" y="358.9261" clip-path="url(#clipPath2)" fill="none" width="96.3411" rx="4" ry="4" height="26.8"/>
      <text x="528.6863" y="376.9821" clip-path="url(#clipPath2)" font-family="sans-serif" stroke="none" stroke-width="1" xml:space="preserve">API code 1</text>
    </g>
    <g fill="rgb(255,204,0)" text-rendering="geometricPrecision" shape-rendering="geometricPrecision" transform="matrix(1.649,0,0,1.649,-809.6361,-379.2593)" stroke="rgb(255,204,0)">
      <rect x="510.15" y="390.7501" clip-path="url(#clipPath2)" width="96.3411" rx="4" ry="4" height="37.7824" stroke="none"/>
    </g>
    <g text-rendering="geometricPrecision" stroke-miterlimit="1.45" stroke-width="2" shape-rendering="geometricPrecision" transform="matrix(1.649,0,0,1.649,-809.6361,-379.2593)" stroke-linecap="butt">
      <rect x="510.15" y="390.7501" clip-path="url(#clipPath2)" fill="none" width="96.3411" rx="4" ry="4" height="37.7824"/>
      <text x="512.7682" y="406.1252" clip-path="url(#clipPath2)" font-family="sans-serif" stroke="none" stroke-width="1" xml:space="preserve">Implementation</text>
      <text x="539.7444" y="422.4694" clip-path="url(#clipPath2)" font-family="sans-serif" stroke="none" stroke-width="1" xml:space="preserve">code 1</text>
    </g>
    <g fill="white" text-rendering="geometricPrecision" shape-rendering="geometricPrecision" transform="matrix(1.649,0,0,1.649,-809.6361,-379.2593)" stroke="white">
      <rect x="510.15" y="433.5565" clip-path="url(#clipPath2)" width="96.3411" rx="4" ry="4" height="26.8" stroke="none"/>
    </g>
    <g text-rendering="geometricPrecision" stroke-miterlimit="1.45" stroke-width="2" shape-rendering="geometricPrecision" transform="matrix(1.649,0,0,1.649,-809.6361,-379.2593)" stroke-linecap="butt">
      <rect x="510.15" y="433.5565" clip-path="url(#clipPath2)" fill="none" width="96.3411" rx="4" ry="4" height="26.8"/>
      <text x="528.8364" y="451.6125" clip-path="url(#clipPath2)" font-family="sans-serif" stroke="none" stroke-width="1" xml:space="preserve">Platform 1</text>
    </g>
    <g fill="url(#linearGradient1)" text-rendering="geometricPrecision" shape-rendering="geometricPrecision" transform="matrix(1.649,0,0,1.649,-809.6361,-379.2593)" stroke="url(#linearGradient1)">
      <path d="M617.3206 272.1701 C596.7206 251.2261 617.3206 232.5261 651.1046 245.9901 C651.1046 232.5261 707.1366 232.5261 707.1366 245.9901 C740.9206 232.5261 761.5206 251.2261 740.9206 267.6821 C761.5206 288.6261 740.9206 307.3261 715.3766 293.8621 C707.1366 307.3261 651.1046 307.3261 659.3446 293.8621 C617.3206 307.3261 596.7206 288.6261 617.3206 272.1701 Z" stroke="none" clip-path="url(#clipPath2)"/>
    </g>
    <g text-rendering="geometricPrecision" stroke-miterlimit="1.45" shape-rendering="geometricPrecision" transform="matrix(1.649,0,0,1.649,-809.6361,-379.2593)" stroke-linecap="butt">
      <path fill="none" d="M617.3206 272.1701 C596.7206 251.2261 617.3206 232.5261 651.1046 245.9901 C651.1046 232.5261 707.1366 232.5261 707.1366 245.9901 C740.9206 232.5261 761.5206 251.2261 740.9206 267.6821 C761.5206 288.6261 740.9206 307.3261 715.3766 293.8621 C707.1366 307.3261 651.1046 307.3261 659.3446 293.8621 C617.3206 307.3261 596.7206 288.6261 617.3206 272.1701 Z" clip-path="url(#clipPath2)"/>
      <text x="632.6862" xml:space="preserve" y="274.5821" clip-path="url(#clipPath2)" font-family="sans-serif" stroke="none">Common design</text>
    </g>
    <g fill="rgb(153,204,0)" text-rendering="geometricPrecision" shape-rendering="geometricPrecision" transform="matrix(1.649,0,0,1.649,-809.6361,-379.2593)" stroke="rgb(153,204,0)">
      <rect x="677.2242" y="358.9261" clip-path="url(#clipPath2)" width="96.3411" rx="4" ry="4" height="26.8" stroke="none"/>
    </g>
    <g text-rendering="geometricPrecision" stroke-miterlimit="1.45" shape-rendering="geometricPrecision" transform="matrix(1.649,0,0,1.649,-809.6361,-379.2593)" stroke-linecap="butt">
      <rect x="677.2242" y="358.9261" clip-path="url(#clipPath2)" fill="none" width="96.3411" rx="4" ry="4" height="26.8"/>
      <text x="695.7606" xml:space="preserve" y="376.9821" clip-path="url(#clipPath2)" font-family="sans-serif" stroke="none">API code 2</text>
    </g>
    <g fill="rgb(255,204,0)" text-rendering="geometricPrecision" shape-rendering="geometricPrecision" transform="matrix(1.649,0,0,1.649,-809.6361,-379.2593)" stroke="rgb(255,204,0)">
      <rect x="677.2242" y="390.7501" clip-path="url(#clipPath2)" width="96.3411" rx="4" ry="4" height="37.7824" stroke="none"/>
    </g>
    <g text-rendering="geometricPrecision" stroke-miterlimit="1.45" shape-rendering="geometricPrecision" transform="matrix(1.649,0,0,1.649,-809.6361,-379.2593)" stroke-linecap="butt">
      <rect x="677.2242" y="390.7501" clip-path="url(#clipPath2)" fill="none" width="96.3411" rx="4" ry="4" height="37.7824"/>
      <text x="700.7286" xml:space="preserve" y="406.1252" clip-path="url(#clipPath2)" font-family="sans-serif" stroke="none">Wrapper</text>
      <text x="706.8186" xml:space="preserve" y="422.4694" clip-path="url(#clipPath2)" font-family="sans-serif" stroke="none">code 2</text>
    </g>
    <g fill="white" text-rendering="geometricPrecision" shape-rendering="geometricPrecision" transform="matrix(1.649,0,0,1.649,-809.6361,-379.2593)" stroke="white">
      <rect x="677.2242" y="433.5565" clip-path="url(#clipPath2)" width="96.3411" rx="4" ry="4" height="26.8" stroke="none"/>
    </g>
    <g text-rendering="geometricPrecision" stroke-miterlimit="1.45" shape-rendering="geometricPrecision" transform="matrix(1.649,0,0,1.649,-809.6361,-379.2593)" stroke-linecap="butt">
      <rect x="677.2242" y="433.5565" clip-path="url(#clipPath2)" fill="none" width="96.3411" rx="4" ry="4" height="26.8"/>
      <text x="695.9105" xml:space="preserve" y="451.6125" clip-path="url(#clipPath2)" font-family="sans-serif" stroke="none">Platform 2</text>
      <path fill="none" d="M611.9956 277.6167 L608.8737 278.8966 L600.0764 283.8251 L592.1106 289.7346 L584.9764 296.6251 L578.6737 304.4966 L573.2026 313.349 L568.5631 323.1825 L564.7551 333.9969 L561.7787 345.7923 L561.1004 350.9967" clip-path="url(#clipPath2)" stroke="rgb(183,201,227)"/>
      <path fill="rgb(183,201,227)" d="M560.0665 358.9296 L566.5754 347.6764 L561.2296 350.0051 L556.6592 346.3841 Z" clip-path="url(#clipPath2)" stroke="none"/>
      <path fill="none" d="M718.2615 295.2589 L720.4734 297.4806 L727.8577 309.5576 L732.0419 323.0806 L733.0262 338.0497 L731.2647 351.0998 L731.2357 351.1955" clip-path="url(#clipPath2)" stroke="rgb(183,201,227)"/>
      <path fill="rgb(183,201,227)" d="M729.4448 358.9925 L737.0043 348.4164 L731.4596 350.2209 L727.2581 346.1777 Z" clip-path="url(#clipPath2)" stroke="none"/>
    </g>
    <g fill="rgb(245,245,245)" text-rendering="geometricPrecision" shape-rendering="geometricPrecision" transform="matrix(1.649,0,0,1.649,-809.6361,-379.2593)" stroke="rgb(245,245,245)">
      <rect x="493.2723" y="521.3421" clip-path="url(#clipPath2)" width="383.6512" rx="4" ry="4" height="186.1583" stroke="none"/>
      <rect x="493.2723" y="521.3421" clip-path="url(#clipPath2)" fill="rgb(235,235,235)" width="383.6512" height="24.4301" stroke="none"/>
    </g>
    <g font-size="15px" stroke-linecap="butt" transform="matrix(1.649,0,0,1.649,-809.6361,-379.2593)" text-rendering="geometricPrecision" font-family="sans-serif" shape-rendering="geometricPrecision" stroke-miterlimit="1.45">
      <text x="495.2723" xml:space="preserve" y="539.3772" clip-path="url(#clipPath2)" stroke="none">Release</text>
      <rect x="493.2723" y="521.3421" clip-path="url(#clipPath2)" fill="none" width="383.6512" stroke-dasharray="6,2" rx="4" ry="4" height="186.1583"/>
    </g>
    <g fill="silver" text-rendering="geometricPrecision" shape-rendering="geometricPrecision" transform="matrix(1.649,0,0,1.649,-809.6361,-379.2593)" stroke="silver">
      <path d="M834.8743 618.4973 L837.2391 603.4973 L856.1576 603.4973 L858.5224 618.4973 L856.1576 633.4973 L837.2391 633.4973 Z" fill-rule="evenodd" clip-path="url(#clipPath2)" stroke="none"/>
    </g>
    <g text-rendering="geometricPrecision" stroke-miterlimit="1.45" stroke-dasharray="6,2" shape-rendering="geometricPrecision" transform="matrix(1.649,0,0,1.649,-809.6361,-379.2593)" stroke-linecap="butt">
      <path fill="none" d="M834.8743 618.4973 L837.2391 603.4973 L856.1576 603.4973 L858.5224 618.4973 L856.1576 633.4973 L837.2391 633.4973 Z" fill-rule="evenodd" clip-path="url(#clipPath2)"/>
      <text x="841.8745" y="623.1533" clip-path="url(#clipPath2)" font-family="sans-serif" stroke-dasharray="none" stroke="none" xml:space="preserve">...</text>
    </g>
    <g fill="rgb(204,153,255)" text-rendering="geometricPrecision" shape-rendering="geometricPrecision" transform="matrix(1.649,0,0,1.649,-809.6361,-379.2593)" stroke="rgb(204,153,255)">
      <path d="M683.2105 664.41 C685.7415 654.8875 765.048 654.8875 767.579 664.41 L767.579 692.9778 C765.048 702.5004 685.7415 702.5004 683.2105 692.9778 Z" stroke="none" clip-path="url(#clipPath2)"/>
    </g>
    <g text-rendering="geometricPrecision" stroke-miterlimit="1.45" shape-rendering="geometricPrecision" transform="matrix(1.649,0,0,1.649,-809.6361,-379.2593)" stroke-linecap="butt">
      <path fill="none" d="M683.2105 664.41 C685.7415 654.8875 765.048 654.8875 767.579 664.41 L767.579 692.9778 C765.048 702.5004 685.7415 702.5004 683.2105 692.9778 Z" clip-path="url(#clipPath2)"/>
      <path fill="none" d="M767.579 664.41 C765.048 673.9326 685.7415 673.9326 683.2105 664.41" clip-path="url(#clipPath2)"/>
      <text x="690.2105" xml:space="preserve" y="683.35" clip-path="url(#clipPath2)" font-family="sans-serif" stroke="none">Repository 2</text>
    </g>
    <g fill="silver" text-rendering="geometricPrecision" shape-rendering="geometricPrecision" transform="matrix(1.649,0,0,1.649,-809.6361,-379.2593)" stroke="silver">
      <path d="M671.1023 579.5724 L768.8285 579.5724 L779.687 609.5724 L681.9608 609.5724 Z" fill-rule="evenodd" clip-path="url(#clipPath2)" stroke="none"/>
    </g>
    <g text-rendering="geometricPrecision" stroke-miterlimit="1.45" shape-rendering="geometricPrecision" transform="matrix(1.649,0,0,1.649,-809.6361,-379.2593)" stroke-linecap="butt">
      <path fill="none" d="M671.1023 579.5724 L768.8285 579.5724 L779.687 609.5724 L681.9608 609.5724 Z" fill-rule="evenodd" clip-path="url(#clipPath2)"/>
      <text x="696.8826" xml:space="preserve" y="599.2283" clip-path="url(#clipPath2)" font-family="sans-serif" stroke="none">Package 2</text>
    </g>
    <g fill="rgb(204,153,255)" text-rendering="geometricPrecision" shape-rendering="geometricPrecision" transform="matrix(1.649,0,0,1.649,-809.6361,-379.2593)" stroke="rgb(204,153,255)">
      <path d="M516.1363 664.41 C518.6674 654.8875 597.9738 654.8875 600.5048 664.41 L600.5048 692.9778 C597.9738 702.5004 518.6674 702.5004 516.1363 692.9778 Z" stroke="none" clip-path="url(#clipPath2)"/>
    </g>
    <g text-rendering="geometricPrecision" stroke-miterlimit="1.45" stroke-width="2" shape-rendering="geometricPrecision" transform="matrix(1.649,0,0,1.649,-809.6361,-379.2593)" stroke-linecap="butt">
      <path fill="none" d="M516.1363 664.41 C518.6674 654.8875 597.9738 654.8875 600.5048 664.41 L600.5048 692.9778 C597.9738 702.5004 518.6674 702.5004 516.1363 692.9778 Z" clip-path="url(#clipPath2)"/>
      <path fill="none" d="M600.5048 664.41 C597.9738 673.9326 518.6674 673.9326 516.1363 664.41" clip-path="url(#clipPath2)"/>
      <text x="523.1363" y="683.35" clip-path="url(#clipPath2)" font-family="sans-serif" stroke="none" stroke-width="1" xml:space="preserve">Repository 1</text>
    </g>
    <g fill="silver" text-rendering="geometricPrecision" shape-rendering="geometricPrecision" transform="matrix(1.649,0,0,1.649,-809.6361,-379.2593)" stroke="silver">
      <path d="M516.3307 550.7726 L614.057 550.7726 L603.1985 580.7726 L505.4723 580.7726 Z" fill-rule="evenodd" clip-path="url(#clipPath2)" stroke="none"/>
    </g>
    <g text-rendering="geometricPrecision" stroke-miterlimit="1.45" stroke-width="2" shape-rendering="geometricPrecision" transform="matrix(1.649,0,0,1.649,-809.6361,-379.2593)" stroke-linecap="butt">
      <path fill="none" d="M516.3307 550.7726 L614.057 550.7726 L603.1985 580.7726 L505.4723 580.7726 Z" fill-rule="evenodd" clip-path="url(#clipPath2)"/>
      <text x="531.2525" y="570.4283" clip-path="url(#clipPath2)" font-family="sans-serif" stroke="none" stroke-width="1" xml:space="preserve">Package 1</text>
    </g>
    <g fill="rgb(204,153,255)" text-rendering="geometricPrecision" shape-rendering="geometricPrecision" transform="matrix(1.649,0,0,1.649,-809.6361,-379.2593)" stroke="rgb(204,153,255)">
      <path d="M827.0735 664.41 C828.251 654.8875 865.146 654.8875 866.3235 664.41 L866.3235 692.9778 C865.146 702.5004 828.251 702.5004 827.0735 692.9778 Z" stroke="none" clip-path="url(#clipPath2)"/>
    </g>
    <g text-rendering="geometricPrecision" stroke-miterlimit="1.45" shape-rendering="geometricPrecision" transform="matrix(1.649,0,0,1.649,-809.6361,-379.2593)" stroke-linecap="butt">
      <path fill="none" d="M827.0735 664.41 C828.251 654.8875 865.146 654.8875 866.3235 664.41 L866.3235 692.9778 C865.146 702.5004 828.251 702.5004 827.0735 692.9778 Z" clip-path="url(#clipPath2)"/>
      <path fill="none" d="M866.3235 664.41 C865.146 673.9326 828.251 673.9326 827.0735 664.41" clip-path="url(#clipPath2)"/>
      <text x="841.8745" xml:space="preserve" y="683.35" clip-path="url(#clipPath2)" font-family="sans-serif" stroke="none">...</text>
    </g>
    <g fill="rgb(153,204,0)" text-rendering="geometricPrecision" shape-rendering="geometricPrecision" transform="matrix(1.649,0,0,1.649,-809.6361,-379.2593)" stroke="rgb(153,204,0)">
      <rect x="834.8745" y="358.9261" clip-path="url(#clipPath2)" width="23.6481" rx="4" ry="4" height="26.8" stroke="none"/>
    </g>
    <g text-rendering="geometricPrecision" stroke-miterlimit="1.45" stroke-dasharray="6,2" shape-rendering="geometricPrecision" transform="matrix(1.649,0,0,1.649,-809.6361,-379.2593)" stroke-linecap="butt">
      <rect x="834.8745" y="358.9261" clip-path="url(#clipPath2)" fill="none" width="23.6481" rx="4" ry="4" height="26.8"/>
      <text x="841.8745" y="376.9821" clip-path="url(#clipPath2)" font-family="sans-serif" stroke-dasharray="none" stroke="none" xml:space="preserve">...</text>
    </g>
    <g fill="rgb(255,204,0)" text-rendering="geometricPrecision" shape-rendering="geometricPrecision" transform="matrix(1.649,0,0,1.649,-809.6361,-379.2593)" stroke="rgb(255,204,0)">
      <rect x="834.8745" y="390.7501" clip-path="url(#clipPath2)" width="23.6481" rx="4" ry="4" height="37.7824" stroke="none"/>
    </g>
    <g text-rendering="geometricPrecision" stroke-miterlimit="1.45" stroke-dasharray="6,2" shape-rendering="geometricPrecision" transform="matrix(1.649,0,0,1.649,-809.6361,-379.2593)" stroke-linecap="butt">
      <rect x="834.8745" y="390.7501" clip-path="url(#clipPath2)" fill="none" width="23.6481" rx="4" ry="4" height="37.7824"/>
      <text x="841.8745" y="414.2973" clip-path="url(#clipPath2)" font-family="sans-serif" stroke-dasharray="none" stroke="none" xml:space="preserve">...</text>
    </g>
    <g fill="white" text-rendering="geometricPrecision" shape-rendering="geometricPrecision" transform="matrix(1.649,0,0,1.649,-809.6361,-379.2593)" stroke="white">
      <rect x="834.8745" y="433.5565" clip-path="url(#clipPath2)" width="23.6481" rx="4" ry="4" height="26.8" stroke="none"/>
    </g>
    <g text-rendering="geometricPrecision" stroke-miterlimit="1.45" stroke-dasharray="6,2" shape-rendering="geometricPrecision" transform="matrix(1.649,0,0,1.649,-809.6361,-379.2593)" stroke-linecap="butt">
      <rect x="834.8745" y="433.5565" clip-path="url(#clipPath2)" fill="none" width="23.6481" rx="4" ry="4" height="26.8"/>
      <text x="841.8745" y="451.6125" clip-path="url(#clipPath2)" font-family="sans-serif" stroke-dasharray="none" stroke="none" xml:space="preserve">...</text>
      <rect x="919.8317" y="472.3846" clip-path="url(#clipPath2)" fill="none" width="30" height="30" stroke="rgb(51,102,255)"/>
      <rect x="1079.0551" y="472.3846" clip-path="url(#clipPath2)" fill="none" width="30" height="30" stroke="rgb(51,102,255)"/>
      <rect x="919.8317" y="521.3421" clip-path="url(#clipPath2)" fill="none" width="30" height="30" stroke="rgb(51,102,255)"/>
      <rect x="1079.0551" y="521.3421" clip-path="url(#clipPath2)" fill="none" width="30" height="30" stroke="rgb(51,102,255)"/>
      <rect x="919.8317" y="570.2995" clip-path="url(#clipPath2)" fill="none" width="30" height="30" stroke="red"/>
      <rect x="1079.0551" y="570.2995" clip-path="url(#clipPath2)" fill="none" width="30" height="30" stroke="red"/>
      <rect x="919.8317" y="423.4272" clip-path="url(#clipPath2)" fill="none" width="30" height="30" stroke="rgb(183,201,227)"/>
      <rect x="1079.0551" y="423.4272" clip-path="url(#clipPath2)" fill="none" width="30" height="30" stroke="rgb(183,201,227)"/>
      <path fill="none" d="M837.1653 604.1584 L833.8199 599.1265 L820.2554 580.9091 L806.0049 563.8448 L791.0683 547.9339 L775.4457 533.1762 L759.1371 519.5717 L742.1425 507.1205 L724.4619 495.8226 L706.0953 485.6779 L687.0427 476.6866 L667.304 468.8484 L646.8793 462.1635 L625.7687 456.6319 L614.327 454.3336" clip-path="url(#clipPath2)" stroke="red"/>
      <path fill="white" d="M606.4837 452.758 C606.9188 450.5922 609.0273 449.1891 611.1931 449.6241 C613.359 450.0592 614.7621 452.1677 614.327 454.3336 C613.892 456.4994 611.7834 457.9025 609.6176 457.4674 C607.4517 457.0324 606.0486 454.9239 606.4837 452.758 Z" clip-path="url(#clipPath2)" stroke="none"/>
      <path fill="none" stroke-dasharray="none" d="M606.4837 452.758 C606.9188 450.5922 609.0273 449.1891 611.1931 449.6241 C613.359 450.0592 614.7621 452.1677 614.327 454.3336 C613.892 456.4994 611.7834 457.9025 609.6176 457.4674 C607.4517 457.0324 606.0486 454.9239 606.4837 452.758 Z" clip-path="url(#clipPath2)" stroke="red"/>
      <path fill="none" stroke-dasharray="none" d="M725.3948 460.3269 L725.3948 568.5942" clip-path="url(#clipPath2)" stroke="rgb(51,102,255)"/>
      <path fill="rgb(51,102,255)" stroke-dasharray="none" d="M725.3948 579.5942 L731.3948 567.5942 L719.3948 567.5942 Z" clip-path="url(#clipPath2)" stroke="none"/>
      <path fill="none" stroke-dasharray="none" d="M725.3948 609.5646 L725.3948 653.2598" clip-path="url(#clipPath2)" stroke="rgb(51,102,255)"/>
      <path fill="rgb(51,102,255)" stroke-dasharray="none" d="M725.3948 657.2598 L731.3948 649.2598 L725.3948 652.2598 L719.3948 649.2598 Z" clip-path="url(#clipPath2)" stroke="none"/>
      <path fill="none" stroke-dasharray="none" d="M716.0356 579.5581 L710.0115 569.8941 L693.0565 546.9949 L674.5298 525.8746 L654.4313 506.5332 L632.7612 488.9707 L609.5193 473.1871 L593.7324 464.277" clip-path="url(#clipPath2)" stroke="red"/>
      <path fill="white" stroke-dasharray="none" d="M586.7655 460.3448 C587.8513 458.421 590.2912 457.7416 592.215 458.8275 C594.1389 459.9133 594.8183 462.3531 593.7324 464.277 C592.6466 466.2009 590.2068 466.8802 588.2829 465.7944 C586.359 464.7086 585.6797 462.2687 586.7655 460.3448 Z" clip-path="url(#clipPath2)" stroke="none"/>
      <path fill="none" stroke-dasharray="none" d="M586.7655 460.3448 C587.8513 458.421 590.2912 457.7416 592.215 458.8275 C594.1389 459.9133 594.8183 462.3531 593.7324 464.277 C592.6466 466.2009 590.2068 466.8802 588.2829 465.7944 C586.359 464.7086 585.6797 462.2687 586.7655 460.3448 Z" clip-path="url(#clipPath2)" stroke="red"/>
      <path fill="none" stroke-dasharray="none" d="M679.3333 428.0605 L669.1765 432.9621 L644.77 448.5505 L622.832 466.7575 L603.3624 487.5833 L586.3614 511.0276 L571.8288 537.0906 L569.1694 543.413" clip-path="url(#clipPath2)" stroke="red"/>
      <path fill="white" stroke-dasharray="none" d="M566.0677 550.7872 C564.0314 549.9307 563.075 547.5855 563.9315 545.5492 C564.788 543.5129 567.1331 542.5564 569.1694 543.413 C571.2057 544.2695 572.1622 546.6146 571.3057 548.6509 C570.4492 550.6873 568.104 551.6437 566.0677 550.7872 Z" clip-path="url(#clipPath2)" stroke="none"/>
      <path fill="none" stroke-dasharray="none" d="M566.0677 550.7872 C564.0314 549.9307 563.075 547.5855 563.9315 545.5492 C564.788 543.5129 567.1331 542.5564 569.1694 543.413 C571.2057 544.2695 572.1622 546.6146 571.3057 548.6509 C570.4492 550.6873 568.104 551.6437 566.0677 550.7872 Z" clip-path="url(#clipPath2)" stroke="red"/>
    </g>
    <g stroke-linecap="butt" transform="matrix(1.649,0,0,1.649,-809.6361,-379.2593)" fill="rgb(51,102,255)" text-rendering="geometricPrecision" shape-rendering="geometricPrecision" stroke="rgb(51,102,255)" stroke-width="2" stroke-miterlimit="1.45">
      <path fill="none" d="M558.4831 460.329 L559.4318 538.39" clip-path="url(#clipPath2)"/>
      <path d="M559.5822 550.7641 L566.1677 537.183 L552.6686 537.3471 Z" clip-path="url(#clipPath2)" stroke="none"/>
      <path fill="none" d="M704.8805 579.5805 L687.1057 569.4377 L667.1816 561.3541 L646.7377 556.2596 L625.774 554.1541 L620.6339 554.3655" stroke-width="1" clip-path="url(#clipPath2)" stroke="red"/>
      <path fill="white" d="M612.6406 554.6943 C612.5499 552.487 614.2656 550.6241 616.4729 550.5333 C618.6802 550.4425 620.5431 552.1583 620.6339 554.3655 C620.7247 556.5728 619.0089 558.4357 616.8016 558.5266 C614.5944 558.6173 612.7314 556.9016 612.6406 554.6943 Z" stroke-width="1" clip-path="url(#clipPath2)" stroke="none"/>
      <path fill="none" d="M612.6406 554.6943 C612.5499 552.487 614.2656 550.6241 616.4729 550.5333 C618.6802 550.4425 620.5431 552.1583 620.6339 554.3655 C620.7247 556.5728 619.0089 558.4357 616.8016 558.5266 C614.5944 558.6173 612.7314 556.9016 612.6406 554.6943 Z" stroke-width="1" clip-path="url(#clipPath2)" stroke="red"/>
    </g>
    <g stroke-linecap="butt" transform="matrix(1.649,0,0,1.649,-809.6361,-379.2593)" fill="red" text-rendering="geometricPrecision" shape-rendering="geometricPrecision" stroke-dasharray="6,2" stroke="red" stroke-miterlimit="1.45">
      <path fill="none" d="M835.4137 622.1741 L826.979 624.9222 L807.4976 630.0511 L788.2545 633.884 L769.2494 636.4209 L750.4825 637.6617 L731.9537 637.6065 L713.6631 636.2552 L695.6107 633.608 L677.7964 629.6646 L660.2203 624.4252 L642.8823 617.8898 L625.7825 610.0584 L608.9208 600.9309 L592.2972 590.5074 L585.203 585.4333" clip-path="url(#clipPath2)"/>
      <path fill="white" d="M578.6961 580.7792 C579.9813 578.9824 582.4797 578.5676 584.2766 579.8528 C586.0734 581.138 586.4882 583.6365 585.203 585.4333 C583.9178 587.2301 581.4194 587.6449 579.6226 586.3597 C577.8257 585.0745 577.4109 582.576 578.6961 580.7792 Z" clip-path="url(#clipPath2)" stroke="none"/>
      <path fill="none" stroke-dasharray="none" d="M578.6961 580.7792 C579.9813 578.9824 582.4797 578.5676 584.2766 579.8528 C586.0734 581.138 586.4882 583.6365 585.203 585.4333 C583.9178 587.2301 581.4194 587.6449 579.6226 586.3597 C577.8257 585.0745 577.4109 582.576 578.6961 580.7792 Z" clip-path="url(#clipPath2)"/>
    </g>
    <g stroke-linecap="butt" transform="matrix(1.649,0,0,1.649,-809.6361,-379.2593)" fill="rgb(51,102,255)" text-rendering="geometricPrecision" shape-rendering="geometricPrecision" stroke="rgb(51,102,255)" stroke-width="2" stroke-miterlimit="1.45">
      <path fill="none" d="M559.5725 580.7972 L558.6526 652.7316" clip-path="url(#clipPath2)"/>
      <path d="M558.595 657.2312 L565.4596 648.3183 L558.667 651.6067 L551.9607 648.1456 Z" clip-path="url(#clipPath2)" stroke="none"/>
      <path fill="none" stroke-dasharray="6,2" d="M846.6985 633.517 L846.6985 653.2966" stroke-width="1" clip-path="url(#clipPath2)"/>
      <path stroke-dasharray="6,2" d="M846.6985 657.2966 L852.6985 649.2966 L846.6985 652.2966 L840.6985 649.2966 Z" stroke-width="1" clip-path="url(#clipPath2)" stroke="none"/>
      <path fill="none" d="M744.2335 264.6555 L753.4886 265.923 L765.9623 269.05 L777.6359 273.4862 L788.5095 279.2316 L798.5831 286.2862 L807.8568 294.65 L816.3304 304.323 L824.004 315.3052 L830.8776 327.5966 L836.9512 341.1973 L840.5309 351.3178 L840.5575 351.4142" stroke-width="1" clip-path="url(#clipPath2)" stroke="rgb(183,201,227)"/>
      <path fill="rgb(183,201,227)" d="M843.0334 359.0214 L844.074 346.0631 L840.248 350.4633 L834.5651 349.158 Z" stroke-width="1" clip-path="url(#clipPath2)" stroke="none"/>
      <path fill="none" stroke-dasharray="6,2" d="M846.6985 460.3162 L846.6985 592.4747" stroke-width="1" clip-path="url(#clipPath2)"/>
      <path stroke-dasharray="6,2" d="M846.6985 603.4747 L852.6985 591.4747 L840.6985 591.4747 Z" stroke-width="1" clip-path="url(#clipPath2)" stroke="none"/>
      <path fill="none" d="M949.7978 487.3846 L1068.0869 487.3846" stroke-width="1" clip-path="url(#clipPath2)"/>
      <path d="M1079.0869 487.3846 L1067.0869 481.3846 L1067.0869 493.3846 Z" stroke-width="1" clip-path="url(#clipPath2)" stroke="none"/>
      <text x="987.2868" y="500.807" clip-path="url(#clipPath2)" font-family="sans-serif" stroke="none" stroke-width="1" xml:space="preserve">assemble</text>
      <path fill="none" d="M949.7978 536.3421 L1075.0869 536.3421" stroke-width="1" clip-path="url(#clipPath2)"/>
      <path d="M1079.0869 536.3421 L1071.0869 530.3421 L1074.0869 536.3421 L1071.0869 542.3421 Z" stroke-width="1" clip-path="url(#clipPath2)" stroke="none"/>
      <text x="994.3849" y="549.7645" clip-path="url(#clipPath2)" font-family="sans-serif" stroke="none" stroke-width="1" xml:space="preserve">upload</text>
      <path fill="none" d="M949.7978 585.2995 L1071.0869 585.2995" stroke-width="1" clip-path="url(#clipPath2)" stroke="red"/>
      <path fill="white" d="M1079.0869 585.2995 C1079.0869 587.5087 1077.296 589.2995 1075.0869 589.2995 C1072.8778 589.2995 1071.0869 587.5087 1071.0869 585.2995 C1071.0869 583.0903 1072.8778 581.2995 1075.0869 581.2995 C1077.296 581.2995 1079.0869 583.0903 1079.0869 585.2995 Z" stroke-width="1" clip-path="url(#clipPath2)" stroke="none"/>
      <path fill="none" d="M1079.0869 585.2995 C1079.0869 587.5087 1077.296 589.2995 1075.0869 589.2995 C1072.8778 589.2995 1071.0869 587.5087 1071.0869 585.2995 C1071.0869 583.0903 1072.8778 581.2995 1075.0869 581.2995 C1077.296 581.2995 1079.0869 583.0903 1079.0869 585.2995 Z" stroke-width="1" clip-path="url(#clipPath2)" stroke="red"/>
    </g>
    <g stroke-linecap="butt" transform="matrix(1.649,0,0,1.649,-809.6361,-379.2593)" fill="red" text-rendering="geometricPrecision" font-family="sans-serif" shape-rendering="geometricPrecision" stroke="red" stroke-miterlimit="1.45">
      <text x="990.1368" xml:space="preserve" y="598.7219" clip-path="url(#clipPath2)" stroke="none">contains</text>
      <path fill="none" d="M949.7978 438.4272 L1071.0869 438.4272" clip-path="url(#clipPath2)" stroke="rgb(183,201,227)"/>
      <path fill="rgb(183,201,227)" d="M1079.0869 438.4272 L1067.0869 433.4272 L1070.0869 438.4272 L1067.0869 443.4272 Z" clip-path="url(#clipPath2)" stroke="none"/>
      <text fill="rgb(183,201,227)" x="996.7369" xml:space="preserve" y="451.8495" clip-path="url(#clipPath2)" stroke="none">reifies</text>
    </g>
  </g>
</svg>
